<svg width="33" height="33" viewBox="0 0 33 33" fill="none" xmlns="http://www.w3.org/2000/svg"><path d="M8.021 16.199h-.5v1h.5v-1Zm17.356.5.354.354a.5.5 0 0 0-.354-.854v.5Zm-9.031 8.323-.354.354.707.707.353-.353-.353-.354-.354-.354Zm.707-17.355-.354-.353-.707.707.353.354.354-.354.354-.354ZM25 17.031l.354.353.707-.707-.353-.354-.354.354-.354.354ZM32.5 16.5H32C32 25.06 25.06 32 16.5 32v1C25.613 33 33 25.613 33 16.5h-.5Zm-16 16V32C7.94 32 1 25.06 1 16.5H0C0 25.613 7.387 33 16.5 33v-.5Zm-16-16H1C1 7.94 7.94 1 16.5 1V0C7.387 0 0 7.387 0 16.5h.5Zm16-16V1C25.06 1 32 7.94 32 16.5h1C33 7.387 25.613 0 16.5 0v.5ZM8.021 16.699v.5h17.356v-1H8.021v.5Zm17.356 0-.354-.354-8.677 8.677.353.354.353.354 8.678-8.677-.353-.354Zm-8.678-8.678-.354.354 8.656 8.656.354-.354.354-.354-8.656-8.656-.354.354Z" fill="currentColor"/></svg>