<svg width="455" height="810" viewBox="0 0 455 810" fill="none" xmlns="http://www.w3.org/2000/svg"><path d="M279.437 810.004c-6.74-15.651-13.493-31.938-20.451-48.718l-11.737-28.212a426.851 426.851 0 0 0-37.732-71.107c-73.65-15.89-142.52-50.671-153.613-92.101-8.075-30.164 5.291-50.83 23.215-59.19a45.072 45.072 0 0 1 4.464-1.801c40.058-13.675 105.86 24.847 161.157 98.908 29.448 4.586 59.9 5.387 86.781-.524 55.1-12.119 62.051-46.64 62.481-71.55.425-24.712-12.135-52.951-35.554-82.014a192.695 192.695 0 0 1-51.227 12.326C194.07 478.035 58.095 409.858 10.301 317.145c-19.415-37.642-7.07-60.111 2.016-70.153a50.969 50.969 0 0 1 16.447-12c28.521-13.3 75.773-7.054 140.965 18.707 61.982 24.492 139.977 68.424 198.585 123.109 8.628-9.425 14.803-20.995 18.527-34.71 15.575-57.51-83.344-132.212-170.619-198.116C152.036 95.512 89.994 48.66 56.995 0h78.342c31.375 31.407 75.623 64.823 117.041 96.1 107.446 81.139 218.548 165.038 192.376 261.685-6.721 24.813-18.941 46.045-35.807 63.03 28.1 36.15 45.744 75.438 45.047 115.931-1.288 74.283-48.8 122.626-130.352 132.637a273.874 273.874 0 0 1-39.226 1.761c6.455 12.36 12.516 25.282 18.184 38.766l11.811 28.394c10.939 26.38 20.86 50.3 30.492 71.7h-65.466ZM62.729 287.847c.272.568.57 1.169.9 1.805 36.3 70.411 149.386 126.039 237.26 116.71a175.71 175.71 0 0 0 9.068-1.207 532.206 532.206 0 0 0-45.533-34c-85.355-57.175-168.359-83.333-200.087-83.336-.55.004-1.086.013-1.608.028Z" fill="currentColor"/></svg>