
<svg xmlns="http://www.w3.org/2000/svg" width="1160.001" height="330.062" viewBox="0 0 1160.001 330.062"><path d="M931.577 300.483c-30.019-23.054-59.719-57.929-77.234-96.883C627.832 317.058 370.096 319.131.001 209.016v-62.653c364.44 110.831 613.784 111.317 829.309 2.669q4.708-2.375 9.477-4.42a130.88 130.88 0 0 1 1.119-28.753c5.067-33.205 26.175-78.324 97.955-104.694 71.429-26.239 149.852-3.293 222.142 38.312v70.559c-68.91-46.069-141.858-74.439-201.451-52.548-39.269 14.425-58.87 35.161-60.09 64.248 32.324-.435 64.633 9.456 93.957 29.453 44.123 30.085 72.477 77.493 68.948 115.286-2.071 22.221-14.814 40.019-34.956 48.828a58.439 58.439 0 0 1-23.621 4.759c-21.298.001-45.792-10.062-71.213-29.579Zm70.075-30.312h.085c.336-7.545-7.622-29.979-32.159-51.011-9.527-8.167-28.436-21.682-53.191-26.066 25.127 43.994 69.057 77.077 85.265 77.077Z" fill="currentColor"/></svg>