
<svg width="1514" height="223" viewBox="0 0 1514 223" fill="none" xmlns="http://www.w3.org/2000/svg"><path d="M47.797 147.31c-.14 5.97-1.54 12.49.41 18.31 2.52 7.52 11.04 8.64 16.51 3.05 2.94-3.01 4.49-7.08 5.84-11.07 10.88-32.09 14.32-66.36 13.25-100.22-.23-7.43-.67-15 1.23-22.2 5.22-19.79 28.18-22.76 38.81-5.28 5.16 8.48 6.08 18.82 6.42 28.74.89 26.04-1.27 52.29-7.41 77.64-5.72 23.67-14.29 49.77-31.93 67.36-11.23 11.2-27.11 18.56-42.85 16.58-28.49-3.6-52.35-38.1-47.43-66.07 1.92-10.9 9.4-21.23 20.01-24.37 11.68-3.45 27.11 4.25 27.13 17.53M206.477 164.79c-1.87.72-3.88 1.04-6.01.86-12.86-1.07-14.99-21.56-15.87-31.19-1.38-15.11 1.83-30.36 5.79-44.86 3.77-13.83 10.25-27.76 10.53-42.26.17-9.17-3.56-19.2-10.71-25.16-8.52-7.11-20.2-5.24-28.23 1.72-8.09 7.01-11.83 17.13-14.71 27.16-8.14 28.3-11.15 58.36-7.84 87.66 2.82 25 9.51 55.53 30.76 71.63 1.99 1.51 4.09 2.87 6.29 4.05 21.65 11.63 49.9 3.84 67.73-13.07 33.31-31.59 40.35-87.92 40.89-131.34.16-12.5-.75-25.61-7.5-36.11-5.35-8.33-16.11-14.78-26.39-13.21-12.28 1.87-18.26 14.43-18.69 25.76-.35 9.26 3.12 18.26 3.55 27.51.77 16.63-.83 33.95-5.42 50.22-3.66 12.97-10.05 35.24-24.16 40.64l-.01-.01Z" fill="currentColor"/><path d="M286.487 155.96c12.79-36.53 10.03-67.51 9.21-110.19-.17-8.72 2.23-20.09 10.36-24.9 8.13-4.81 21.2-1.8 28.32 4.23 15.2 12.88 17.86 35.8 18.64 54.43 1.25 30.01-3.38 60-13.12 88.39-7.09 20.68-17.09 49.38-42.71 52.17-13.41 1.46-21.98-8.75-23.61-21.22-2.07-15.9 8-28.55 12.91-42.92M412.187 113.92c8.96-25.03 29.55-46.31 55.75-42.44 10.82 1.6 21.89 6.7 32.24 3.18 10.9-3.71 16.87-16.81 14.44-28.06-2.43-11.25-11.78-20.17-22.54-24.27-38.03-14.53-80.11 9.32-103.92 38.5-22.79 27.94-32.79 67.11-23.44 102.24 5.73 21.53 20.23 42.16 40.37 51.7 17.34 8.21 38.32 7.19 55.7-.9 17.39-8.1 31.26-21.38 40.26-38.32 5.99-11.27 11.37-25.94 7.67-38.15-3.71-12.21-18.9-21.81-30.81-17.24-7 2.68-11.36 9.13-14.69 15.5-4.96 9.5-9.78 19.4-18.82 25.69-9.04 6.29-19.57 7.23-27.54-.95-10.39-10.68-10.02-30.49-4.68-46.48M586.327 67.63a18.58 18.58 0 0 1 3.69-4.89c5.27-5.04 11.73-6.35 18.85-4.79 10.66 2.35 20.11 12.41 30.63 9.53 7.74-2.12 12.1-11.17 10.92-19.12-1.19-7.93-6.73-14.61-13.14-19.43-17.34-13.06-46.52-14.45-65.56-4.02-13.2 7.23-23.57 19.73-29.36 33.52-4.5 10.73-5.19 22.21-4.36 33.69 16.6-19.38 42.7-23.76 48.35-24.5l-.02.01Z" fill="currentColor"/><path d="M651.317 146.15c-7.6-2.28-15.61 1.15-20.85 7.1-4.39 4.98-7.71 10.85-12.42 15.57-5.06 5.08-11.97 8.19-18.99 9.41-11.57 2.01-22.96-2.3-30.8-10.92-6.3-6.91-7.92-15.87-5.46-23.95 4-13.13 14.49-25.15 26.5-31.11 3.02-1.5 6.18-2.48 9.61-1.97 2.56.38 5.6 1.62 6.06 4.5.47 2.93-1.89 6.25-4.91 6.31-.21 0-.42 0-.63-.01-.52-.03-1.03-.1-1.54-.18-.15-.02-.97-.21-.97-.21-14.45 6.44-22.23 21.07-24.58 27.45 8.9 4.54 19.42 8.26 29.28 7.61 15.52-1.02 33.09-15.11 36.37-31.13 4.44-21.59-11.26-39.27-24.89-44.1-9.45-3.35-19.4-3.73-29.22-2.17-25.75 3-44.53 26.76-44.53 26.76-12.08 14.79-20.07 33.6-20.09 50.44-.05 30.25 24.72 58.92 54.65 63.36 36.86 5.46 62.84-7.64 80.43-32.25 4.32-6.03 7.97-15.64 8.13-23.05.16-7.41-4.05-15.3-11.15-17.43v-.03ZM1504.28 0l2.7 9.85 2.56-9.85h4.42v14.53h-2.74l.02-11.18-2.87 11.17-2.77.01-2.97-11.33v11.33h-2.69V0h4.34ZM1498.06 0v2.44h-4.27V14.4s-.07.08-.05.13h-2.9V2.51l-.08-.08h-4.24V0h11.54ZM1094.71 162.94c-2.15 1.05-4.08.98-5.89-.1-1.81-1.08-3.37-3.11-4.52-5.12-3.16-5.5-4.59-12.33-5.59-18.66-2.46-15.49-.9-31.62 2.65-46.81 1.73-7.42 4.21-14.59 6.47-21.86s4.17-14.68 4.17-22.27c0-10.4-4.4-21.67-13.25-27.64-4.71-3.17-10.4-4.17-15.96-3.32-6.84 1.04-12.91 5.16-17.31 10.38-4.4 5.22-7.25 11.31-9.45 17.67-2.43 7.02-4.25 14.29-5.8 21.56-6.46 30.26-6.73 61.78-.7 92.13 4.7 23.67 15.22 49.17 38.78 59.41 6.03 2.62 12.5 4.19 19.1 4.02 6.14-.16 12.09-1.77 17.65-4.34 6.01-2.78 11.45-6.72 16.43-11.05 5.34-4.65 10.08-9.89 14.23-15.63 7.97-11.04 13.51-23.69 17.63-36.61 4.69-14.74 8.06-29.97 10.39-45.26 2.18-14.31 3.81-28.95 2.63-43.43-.56-6.81-1.71-13.61-3.82-20.12-2.11-6.51-4.94-12.93-9.25-18.11-3.88-4.67-9.41-7.54-15.44-8.09-6.03-.55-12.33 1.35-17.18 4.71-5.21 3.62-8.6 9.18-10.34 15.21-2.07 7.18-1.5 14.47-.19 21.72.64 3.56 1.43 7.1 1.89 10.69.51 3.87.54 7.81.65 11.71.21 7.79.14 15.59-.36 23.36s-1.47 15.68-3.11 23.39c-1.32 6.2-2.72 12.56-4.79 18.56-1.78 5.15-4.7 11.2-9.72 13.9-2.84 1.52-.31 5.84 2.52 4.32 5.64-3.03 9.17-9.38 11.38-15.14 2.21-5.76 3.43-11.65 4.8-17.52 3.49-14.92 4.51-30.34 4.36-45.63-.08-7.58-.27-15.13-1.62-22.61-1.27-6.99-3.07-14.15-1.92-21.29.91-5.64 3.15-11.24 7.46-15.14 3.97-3.59 9.84-5.53 15.16-5.3 5.32.23 9.92 2.9 13.13 6.98 3.89 4.93 6.43 11.22 8.22 17.19 3.8 12.72 4.05 26.22 3.02 39.37-1.17 15.09-3.68 30.08-7.15 44.81-3.18 13.48-7 26.96-13.04 39.47-5.87 12.16-13.74 23.06-24.07 31.81-9 7.62-19.99 13.57-32.09 13.07-11.86-.49-23.17-6.78-31.05-15.44-7.91-8.69-12.85-19.77-16.19-30.92-3.94-13.14-5.96-26.92-6.92-40.58a226.36 226.36 0 0 1 1.33-44.92c.96-7.37 2.32-14.7 4.02-21.93 1.62-6.88 3.43-13.82 6.04-20.39 4.33-10.9 13.54-22.68 26.65-21.18 9.53 1.09 15.54 10.38 17.5 19.32 2.88 13.16-3.07 26.75-6.9 39.2-4.5 14.61-7.08 30.09-6.77 45.4.16 7.7 1.08 15.44 3.04 22.9 1.45 5.52 3.38 11.2 7.25 15.53 1.62 1.82 3.7 3.33 6.06 4.01 2.84.81 5.69.21 8.28-1.06 1.21-.59 1.54-2.32.9-3.42-.72-1.24-2.2-1.49-3.42-.9l.02-.01ZM1297.42 157.07c4.62-14.85 7.04-30.24 7.66-45.77.64-15.72-.36-31.45-1.3-47.14-.26-4.4-.53-8.8-.77-13.2-.24-4.4-.3-8.37.63-12.54 1.33-6.02 4.09-12.44 10.2-14.47 5.3-1.76 11.39-.76 16.51 1.4 5.87 2.48 10.42 7.04 13.61 12.54 3.19 5.5 5.29 12.18 6.83 18.62 1.86 7.77 3.21 15.67 4.05 23.61 1.72 16.23 1.47 32.73-.85 48.89-2.32 16.16-6.59 32.08-12.77 47.21-5.14 12.58-11.36 25.84-21.98 34.76-4.41 3.71-9.84 6.42-15.6 6.06-6.23-.38-11.86-4.41-14.94-9.79-3.08-5.38-4.21-12.19-3.08-18.29 1.32-7.15 4.75-13.79 7.54-20.45 1.58-3.75 3.04-7.55 4.24-11.44.95-3.08-3.88-4.4-4.82-1.33-2.45 7.96-6.18 15.39-9.16 23.14-2.62 6.81-3.89 13.67-2.6 20.93s4.96 13.97 11 18.12 13.07 5.2 19.75 3.07c6.68-2.13 11.92-6.56 16.37-11.56 4.45-5 8.19-10.84 11.27-16.9a199.44 199.44 0 0 0 17.12-48.33c3.59-16.69 5.12-33.84 4.46-50.9-.33-8.6-1.23-17.19-2.66-25.68-1.27-7.55-2.83-15.16-5.4-22.38-2.39-6.73-5.74-13.33-10.98-18.3-4.86-4.63-11.24-7.6-17.87-8.54-6.63-.94-13.48.12-18.33 4.88-2.61 2.56-4.27 5.99-5.48 9.4-1.46 4.1-2.2 8.5-2.27 12.85-.07 4.6.42 9.25.69 13.85.27 4.6.53 8.8.78 13.2.46 8.16.87 16.33.97 24.51.2 15.7-.85 31.39-4.41 46.72a164.2 164.2 0 0 1-3.25 11.93c-.96 3.08 3.87 4.4 4.82 1.33l.02-.01ZM904.687 21.7c-5.23 1.42-10.02 4.02-13.62 8.12-3.6 4.1-5.86 9.17-6.54 14.62-.68 5.45.11 11.07 2.53 15.9s6.42 7.78 11.37 9.24c4.95 1.46 10.47 1.23 15.65.69 2.59-.27 5.17-.63 7.76-.89 2.3-.23 4.56-.27 6.03 1.78 1.59 2.23 2.42 5.02 3.1 7.64.75 2.88 1.29 5.81 1.72 8.75.87 5.95 1.17 11.99 1.32 18 .32 12.63-.25 25.26-1.51 37.83-.61 6.09-1.42 12.16-2.53 18.18-.57 3.09-1.21 6.17-1.98 9.22-.67 2.7-1.55 5.33-2.26 8.02-2.62 9.82-3.44 20.86 1.24 30.21 4.68 9.35 14.1 13.78 24.07 13.59 4.53-.08 8.99-1.07 12.94-3.34 3.72-2.14 6.74-5.22 9.24-8.67 5.33-7.37 8.05-16.46 9.96-25.25 2.61-12.01 3.65-24.33 3.94-36.61.29-12.56-.23-25.14-1.29-37.66-1.06-12.52-3.17-24.1-4.56-36.19-.1-.9-.19-1.81-.15-2.71.03-.73.09-1.36.53-1.94.2-.27 1.01-.66 1.73-.76 1.18-.18 2.46-.01 3.63.14 5.99.78 11.92 2.02 17.933 2.62 4.95.5 10.85.73 14.75-2.94 1.53-1.45 2.49-3.4 3.27-5.33 1.95-4.84 2.49-10.4 2.05-15.57-.55-6.47-2.68-12.69-6.83-17.74-2.19-2.66-4.98-4.87-8.03-6.47-4.14-2.16-8.63-3.12-13.193-3.92-12.29-2.16-24.87-2.87-37.33-3.07-12.46-.2-25.12.31-37.57 1.79-5.77.68-11.71 1.24-17.35 2.7-3.11.81-1.79 5.63 1.33 4.82 5.52-1.43 11.33-1.99 16.99-2.63 6.01-.69 12.05-1.13 18.1-1.41 12.21-.55 24.44-.34 36.62.54 5.91.42 11.8 1.03 17.64 2.04 4.26.74 8.663 1.57 12.363 3.52 2.86 1.51 4.96 3.23 7.05 5.81.29.36-.33-.46.13.17.1.13.19.26.29.39.21.3.42.6.62.9.42.64.8 1.29 1.16 1.96.79 1.48 1.04 2.07 1.56 3.65.46 1.37.81 2.77 1.08 4.18.28 1.5.35 2.05.44 3.77.08 1.36.08 2.73 0 4.09-.04.64-.09 1.28-.16 1.91-.01.14-.03.28-.05.42-.07.67.05-.36 0 .05a29.751 29.751 0 0 1-1.44 5.97c-.09.24-.18.47-.27.71-.06.15-.24.53.03-.07-.07.14-.13.29-.19.43-.38.78-.8 1.5-1.27 2.22-.36.54.37-.36-.07.08-.11.11-.21.23-.31.34-.55.56-1.22.97-1.95 1.25-1.95.77-4.16.74-6.22.65-2.96-.12-5.88-.53-8.803-1-2.92-.47-5.85-.99-8.79-1.37-2.7-.35-5.42-.93-8.15-.5-2.22.35-4.31 1.55-5.38 3.59-.98 1.87-1.05 4.05-.85 6.11.54 5.57 1.46 11.12 2.25 16.67 3.4 23.81 4.91 48.14 2.93 72.15-.88 10.72-2.51 21.6-5.97 31.82-2.42 7.17-6.16 14.85-12.62 19.18-6.46 4.33-16.24 4.74-23.29.99-8.62-4.59-11.31-14.51-10.85-23.66.24-4.8 1.28-9.51 2.68-14.09 1.74-5.67 2.96-11.49 3.95-17.33 2.03-12.01 3.12-24.22 3.59-36.39.47-12.17.42-24.42-1.24-36.46-.78-5.65-1.82-11.49-4.37-16.64-1.13-2.29-2.72-4.37-5.11-5.42-2.62-1.15-5.39-.84-8.14-.52-4.95.58-9.96 1.32-14.96 1.05-4.5-.25-9.23-1.59-12.12-5.27-2.89-3.68-3.76-8.74-3.62-13.26.15-4.8 1.8-9.63 4.91-13.32 3.11-3.69 7.13-6.01 11.79-7.27 3.1-.84 1.79-5.67-1.33-4.82v.02ZM876.527 53.35c2.66-7.61.99-15.68-4.29-21.71-4.38-5-10.68-8.08-16.93-10.07-6.65-2.12-13.74-3.05-20.65-3.84-6.91-.79-14.57-1.18-21.87-.88-14.5.61-29.23 3.8-41.71 11.48-12.73 7.83-22.51 20.65-24.79 35.64-1.15 7.53-.23 15.02 2.76 22.03 2.83 6.64 7.35 12.53 12.79 17.25 12.42 10.77 28.49 15.55 44.09 19.59 7.83 2.03 15.86 4.07 22.76 8.46 5.76 3.66 10.72 9.14 12.19 15.95 1.28 5.97-.81 12.49-4.67 17.11-4.27 5.11-10.36 7.91-17.02 7.88-6.66-.03-13.4-2.75-18.2-7.45-5.06-4.95-8.09-11.58-13.25-16.45-5.74-5.42-13.67-7.5-21.36-5.7-7.22 1.69-13.29 6.96-16.42 13.64-6.91 14.75 1.06 31.65 11.1 42.87 10.04 11.22 23.34 18.32 37.67 21.27 16.61 3.42 34.22 1.46 50.03-4.5 11.9-4.48 22.94-11.61 30.94-21.61s12.39-21.64 13.53-34.13c.65-7.12.13-14.3-1.07-21.33-1.37-7.97-3.89-15.86-8.03-22.84-7.8-13.14-21.02-21.66-35.14-26.74-7.35-2.64-14.96-4.18-22.62-5.63-7.85-1.49-15.9-3-23.14-6.52-3.04-1.48-6.59-3.32-8.17-6.49-1.24-2.5-.41-5.14 1.47-7.1 5.3-5.53 13-3.44 19.12-.6 3.76 1.75 7.4 3.71 11.24 5.27 3.84 1.56 7.72 2.77 11.74 3.51 8.01 1.46 16.59 1.12 23.95-2.65 6.4-3.28 11.45-9 13.94-15.73.47-1.27-.52-2.74-1.75-3.08-1.4-.38-2.6.48-3.08 1.75-2.27 6.12-7.55 11.36-13.66 13.65-7.39 2.77-15.51 2.2-22.99.1-3.8-1.07-7.47-2.53-11.02-4.26s-7.24-3.7-11.08-5.02c-3.84-1.32-7.64-1.92-11.46-1.15-3.27.66-6.5 2.45-8.75 4.93-2.25 2.48-3.63 5.7-3.22 9.08.49 3.98 3.11 7 6.26 9.28 6.31 4.57 14.43 6.77 21.94 8.4 7.51 1.63 15.39 2.76 22.93 4.87 6.9 1.92 13.6 4.54 19.81 8.15 6.21 3.61 11.69 8.07 16.04 13.66 4.71 6.05 7.73 13.23 9.58 20.63 3.19 12.77 3.49 26.53-.63 39.12-3.56 10.89-10.52 20.44-19.57 27.47-11.04 8.58-24.84 13.4-38.57 15.38-15.36 2.21-31.55.23-45.34-7.11-12.06-6.43-22.57-16.84-27.41-29.8-2.61-6.99-3.37-14.77.2-21.57 3.14-5.97 8.93-10.31 15.78-10.76 3.43-.22 6.91.41 9.93 2.09 3.02 1.68 5.27 4.15 7.32 6.78 4.37 5.63 7.88 11.75 13.89 15.87 11.59 7.95 28.36 7.37 37.82-3.62 4.39-5.1 7.12-11.84 6.68-18.64-.46-7.2-4.3-13.7-9.6-18.46-5.88-5.29-13.19-8.42-20.69-10.69-7.5-2.27-15.57-4.01-23.23-6.49-14.02-4.54-28.24-11.63-36.27-24.55-3.59-5.78-5.7-12.4-5.65-19.23.05-6.83 2.29-14.14 5.82-20.27 7.08-12.28 19.41-20.14 32.75-24.19 13.34-4.05 28.04-4.57 42.09-3.26 6.64.62 13.39 1.5 19.84 3.21 5.9 1.56 11.9 4.02 16.31 8.37 1.94 1.91 3.53 4.21 4.41 6.8 1.28 3.74 1.02 7.55-.27 11.25-.45 1.27.51 2.73 1.75 3.08 1.38.38 2.63-.47 3.08-1.75h.02Z" fill="currentColor"/><path d="M1191.24 18.42c-4.14.81-8.23 2.63-11.19 5.7-2.96 3.07-4.91 7.58-6.06 11.84-2.61 9.65-1.23 19.79-.99 29.63.51 20.45.58 41.08-2.82 61.32-1.66 9.87-3.98 19.76-7.41 29.18-3.32 9.09-7.9 17.7-11.01 26.86-2.94 8.69-2.53 18.44 1.88 26.59 2.02 3.73 4.94 6.97 8.57 9.19 3.96 2.43 8.46 3.21 13.05 3.45 5.07.26 10.2.09 15.27-.13s10.32-.67 15.44-1.39c8.21-1.16 16.3-3.22 24.09-6.04 1.44-.52 2.78-.97 3.37-2.52l-1.75 1.75c8.75-3.61 16.87-8.42 24.12-14.53 7.25-6.11 13.29-13.42 18.17-21.47 4.81-7.92 8.41-16.56 11.27-25.35 2.91-8.96 4.97-18.18 6.22-27.51 2.41-18.06 1.9-37.22-3.86-54.64-5.24-15.86-16.02-29.4-30.28-38.1-8.27-5.05-17.54-8.51-26.95-10.72-5.13-1.21-10.33-2.01-15.56-2.58-5.23-.57-10.54-1.13-15.81-1.17-2.6-.02-5.19.19-7.75.65-1.33.24-2.08 1.86-1.75 3.08.39 1.4 1.74 1.99 3.08 1.75 4.93-.88 10-.38 14.95.03 4.95.41 10.23.89 15.29 1.79 9.45 1.68 18.77 4.48 27.32 8.89 13.95 7.18 25.27 19.02 31.15 33.65 6.51 16.21 7.5 34.63 5.82 51.85-.87 8.97-2.62 17.85-5.09 26.51-2.41 8.43-5.48 16.73-9.59 24.49-4.11 7.76-9.65 15.48-16.23 21.8-6.4 6.14-13.82 11.16-21.82 14.98-1.01.48-2.03.95-3.06 1.39-1.2.52-2.22.86-2.71 2.19l.64-1.1c.32-.33.5-.22.08-.13-.31.07.43-.17.07-.03-.1.04-.21.08-.31.12-.65.23-1.29.46-1.94.67-1.2.39-2.39.78-3.59 1.17-4.46 1.45-9.02 2.59-13.62 3.46-9.44 1.78-19.04 2.21-28.63 2.3-4.45.04-9.15.17-13.4-1.32-3.24-1.13-6.17-3.39-8.19-6.16-4.87-6.67-5.98-15.64-3.74-23.48 1.26-4.42 3.18-8.66 5-12.87 1.82-4.21 3.71-8.46 5.4-12.76 3.49-8.86 5.93-18.13 7.75-27.47 3.76-19.27 4.37-38.94 4.09-58.52-.07-4.82-.16-9.64-.33-14.46s-.57-9.57-.35-14.36c.34-7.56 2.47-17.13 9.79-20.9 1.66-.86 3.46-1.37 5.29-1.72 1.33-.26 2.08-1.84 1.75-3.08-.38-1.38-1.75-2.01-3.08-1.75l-.05-.02Z" fill="currentColor"/><path d="M1248.37 129.16c-2.92 14.04-11.21 26.47-24.19 32.99-3.37 1.69-6.98 2.98-10.71 3.62-1.67.28-3.48.43-5.17.23-.6-.07-.8-.17-1.28-.41.1.05-.08-.09-.09-.1-.26-.31-.18-.17-.23-.58-.01-.06-.03-.29 0 0-.02-.18-.02-.39 0-.57.01-.31 0-.23.07-.54.22-1.06.62-2.11.95-3.14.68-2.12 1.4-4.22 2.09-6.34 1.38-4.18 2.57-8.4 3.53-12.7 3.98-17.9 5.06-36.37 4.3-54.65-.09-2.22-.21-4.45-.32-6.67-.09-1.79-.63-4.2.1-5.9-.15.34.1-.14.16-.24.3-.35.06-.1 0 0 .04-.04.16-.2.22-.21.18-.04-.03.02-.12.09.09-.07.24-.16.34-.19-.53.18.16-.01.33-.05-.64.14.9.04.71.02-.23-.02.49.09.59.12.28.06.56.14.84.23 2.11.65 4.29 1.95 6.36 3.31 2.07 1.36 4.11 2.87 5.98 4.53 5.67 5.05 10.49 11.57 13.26 18.67 2.77 7.1 3.8 15.08 3.13 22.83-.17 1.9-.45 3.79-.83 5.66-.26 1.32.38 2.7 1.75 3.08 1.23.34 2.81-.42 3.08-1.75 1.72-8.57 1.65-17.48-.6-25.95-2.25-8.47-6.71-16-12.52-22.38-4.15-4.56-9.37-8.74-14.95-11.46-2.51-1.22-5.49-2.39-8.32-1.68-3.63.91-4.78 4.57-4.66 7.93.35 9.77.92 19.47.56 29.26-.36 9.84-1.35 19.65-3.21 29.32-.91 4.74-1.99 9.45-3.42 14.06-.73 2.35-1.52 4.68-2.3 7.02-.68 2.06-1.55 4.18-1.92 6.32-.65 3.77 1.28 7.28 5.24 7.93 3.96.65 8.42-.16 12.29-1.38 7.75-2.44 14.95-6.88 20.51-12.81 5.46-5.82 9.43-12.93 11.83-20.52.59-1.86 1.07-3.74 1.46-5.65.27-1.32-.39-2.7-1.75-3.08-1.24-.34-2.8.42-3.08 1.75l-.01-.02ZM1485.68 81.72c-2.55-18.72-9.07-37.93-23.13-51.18-12.52-11.8-31.14-17.5-47.88-12.49-16.74 5.01-28.21 18.43-35.28 33.27-7.07 14.84-10.23 30.13-11.78 45.84-1.4 14.22-1.62 28.59-.57 42.84 1.11 14.98 3.53 30.12 8.85 44.22 4.76 12.6 12.01 24.68 23.36 32.36 7.72 5.22 17.54 7.22 26.73 6.05 9.6-1.23 18.35-5.67 25.57-12.05 7.24-6.41 13.08-14.59 17.34-23.24 4.58-9.32 8.32-19.06 11.16-29.05 5.69-19.99 7.86-40.98 6.89-61.72-.23-4.95-.58-9.92-1.25-14.83-.18-1.34-1.9-2.07-3.08-1.75-1.45.4-1.93 1.73-1.75 3.08 1.28 9.43 1.5 19.67 1.19 29.37-.32 9.94-1.38 19.85-3.28 29.62s-4.62 19.48-8.16 28.83c-3.54 9.35-7.48 17.88-13.16 25.71-5.21 7.18-11.73 13.3-19.67 17.34-7.83 3.98-17.13 5.12-25.65 2.95-13.35-3.4-22.33-14.55-28.18-26.45-5.85-11.9-9.23-26.45-10.92-40.12-1.69-13.67-2.05-28.64-1.23-42.94.81-14.25 2.79-28.1 7.26-41.77 4.72-14.47 12.62-28.66 25.59-37.24 6.75-4.46 14.34-7.07 22.47-7.12 7.99-.05 15.91 2.2 22.83 6.16 15.37 8.78 24.05 25.27 28.28 41.93 1.15 4.52 2 9.12 2.63 13.74.18 1.34 1.9 2.07 3.08 1.75 1.44-.4 1.93-1.73 1.75-3.08l-.01-.03Z" fill="currentColor"/><path d="M1425.44 159.8c-3.62.95-6.55-.79-8.98-3.59-2.63-3.04-4.29-6.94-5.42-10.75-3.14-10.56-3.55-21.75-2.33-32.65.6-5.41 1.65-10.77 3.01-16.04.95-3.69 2.17-7.82 3.57-11.08 2.46-5.74 5.52-10.96 10.02-14.95.23-.2.46-.4.7-.6.13-.11.26-.21.39-.31a20.246 20.246 0 0 1 1.45-.96c.46-.27.93-.51 1.42-.74.33-.16-.58.21-.05.02.1-.04.21-.08.31-.12.26-.09.52-.18.78-.25s.52-.12.78-.18c.61-.15-.27-.03.11-.02.49 0 1.03.01 1.52 0 .37-.02-.52-.14.08.02.25.07.49.11.74.18.2.06.39.13.58.2-.72-.26.15.09.33.19.22.12.42.26.63.39.58.35-.18-.21.24.17s.86.78 1.24 1.22c.09.1.17.2.25.3.42.49-.2-.28.04.05.19.26.37.51.54.78.42.64.8 1.32 1.15 2.01 1.5 3 2.49 7.03 3.13 10.67 1.08 6.16 1.11 12.52 1.09 18.75-.03 7.31-.41 14.62-1.29 21.88-.82 6.71-2.2 13.95-4.59 20.52-.61 1.69-1 2.64-1.75 4.18-.65 1.34-1.37 2.65-2.18 3.9-.35.55-.73 1.08-1.11 1.6-.43.58.18-.22-.09.12-.12.14-.23.29-.35.43-.23.28-.47.55-.72.82a19.238 19.238 0 0 1-2.07 1.96c-.1.08-.48.36-.06.06-.16.12-.33.24-.5.36a15.685 15.685 0 0 1-2.28 1.32c-.6.3.03.02-.33.13-3.06.96-1.75 5.78 1.33 4.82 5.87-1.83 10.07-7.63 12.64-12.9 3.28-6.72 5.07-14.1 6.25-21.45 1.27-7.9 1.89-15.9 2.07-23.9.14-6.38.24-12.94-.54-19.28-.56-4.58-1.35-9.21-3.01-13.54-1.15-2.98-2.67-6.04-5.11-8.18-4.16-3.65-9.58-3.42-14.12-.56-5.36 3.38-9.26 8.97-12.14 14.5-4.29 8.24-6.61 17.48-8.13 26.59-1.98 11.81-2.29 23.96.23 35.71 1.07 4.96 2.6 9.9 5.24 14.27 2.29 3.79 5.51 7.38 9.86 8.71 2.21.68 4.55.61 6.77.03 3.11-.81 1.79-5.64-1.33-4.82l-.01.01Z" fill="currentColor"/></svg>